<?xml version="1.0" encoding="UTF-8" standalone="no"?><!DOCTYPE svg PUBLIC "-//W3C//DTD SVG 1.1//EN" "http://www.w3.org/Graphics/SVG/1.1/DTD/svg11.dtd"><svg width="100%" height="100%" viewBox="0 0 500 500" version="1.1" xmlns="http://www.w3.org/2000/svg" xmlns:xlink="http://www.w3.org/1999/xlink" xml:space="preserve" xmlns:serif="http://www.serif.com/" style="fill-rule:evenodd;clip-rule:evenodd;stroke-linejoin:round;stroke-miterlimit:1.41421;"><g><path d="M261.567,443.641c-4.366,16.936 -8.644,33.892 -13.148,50.795c-1.391,5.217 -5.668,6.029 -10.658,5.366c-41.389,-5.497 -77.54,-22.411 -111.486,-44.952c-23.555,-15.643 -42.672,-35.28 -61.16,-55.791c-5.879,-6.523 -6.237,-10.358 1.467,-16.643c14.784,-12.065 32.156,-20.605 46.664,-32.911c4.224,-3.584 7.94,-3.525 12.083,1.496c13.65,16.537 28.301,32.083 46.097,45.01c18.612,13.518 38.078,24.736 60.531,31.58c8.054,2.454 15.4,7.131 24.039,8.594c3.932,0.665 5.726,3.448 5.571,7.456Z" style="fill:#3a53a0;"/><path d="M294.497,311.359c-4.38,17.972 -9.032,37.525 -13.941,57.019c-2.653,10.536 -5.697,20.984 -8.662,31.447c-1.838,6.481 -5.467,7.807 -12.422,5.366c-25.439,-8.93 -49.396,-20.242 -70.234,-36.974c-13.259,-10.649 -23.622,-23.923 -35.297,-36.002c-4.584,-4.745 -3.535,-9.057 2.731,-12.836c23.61,-14.244 45.948,-30.222 67.887,-46.685c13.729,-10.3 16.599,-9.832 26.939,3.468c8.642,11.119 20.731,18.206 34.109,23.117c5.397,1.981 9.186,4.455 8.89,12.08Z" style="fill:#3a53a0;"/><path d="M111.849,207.714c-0.89,-9.446 1.465,-20.71 3.689,-32.092c1.799,-9.199 6.357,-10.723 15.34,-9.072c15.32,2.814 29.151,9.94 44.535,12.584c13.585,2.336 26.858,6.272 40.325,9.278c6.761,1.509 9.571,4.452 8.861,11.736c-1.62,16.623 0.671,32.927 8.537,48.118c3.799,7.335 1.314,11.083 -6.215,14.481c-28.335,12.785 -56.437,26.043 -84.481,39.395c-6.034,2.873 -7.139,-1.085 -9.107,-4.535c-13.261,-23.232 -21.46,-56.679 -21.484,-89.893Z" style="fill:#5456a3;"/><path d="M261.864,139.432c-0.095,3.454 -2.417,4.425 -4.236,5.927c-10.961,9.04 -22.106,17.945 -27.073,31.672c-2.504,6.917 -6.446,8.616 -14.25,5.463c-25.076,-10.127 -49.629,-21.408 -75.341,-30.179c-15.524,-5.294 -15.348,-8.399 -8.039,-22.177c14.821,-27.937 39.256,-45.944 66.642,-61.218c5.297,-2.955 10.348,-3.495 14.423,2.254c15.257,21.53 30.622,42.988 45.904,64.499l1.97,3.759Z" style="fill:#db1078;"/><path d="M192.503,42.069c0.323,4.306 -1.899,6.031 -5.13,7.146c-19.477,6.716 -35.955,17.822 -51.758,30.437c-14.668,11.709 -24.963,26.308 -34.157,41.735c-6.266,10.516 -7.069,11.572 -19.196,6.792c-14.021,-5.524 -27.092,-13.09 -41.722,-17.365c-6.87,-2.007 -7.731,-6.004 -4.281,-12.164c6.92,-12.355 16.045,-23.33 25.925,-33.218c16.143,-16.156 33.428,-31.123 55.22,-41.147c13.687,-6.294 26.546,-13.971 41.656,-17.043c4.658,-0.945 8.781,-1.443 11.837,3.197c6.429,9.766 12.52,19.758 20.323,28.654c0.83,0.947 1.041,2.388 1.283,2.976Z" style="fill:#db1078;"/><path d="M307.349,412.748c-14.008,0.087 -15.978,-2.042 -14.757,-15.663c2.206,-24.574 4.356,-49.153 6.558,-73.728c1.301,-14.494 2.444,-15.699 17.411,-15.428c12.121,0.219 23.351,-1.587 32.992,-9.293c6.309,-5.042 10.496,-3.724 14.264,3.65c11.166,21.866 22.81,43.523 34.776,65.003c4.173,7.492 3.849,12.93 -4.048,17.47c-26.898,15.462 -54.888,27.79 -87.196,27.989Z" style="fill:#309647;"/><path d="M76.954,212.355c-0.594,20.958 3.42,41.383 9.157,61.429c2.061,7.198 -0.015,9.422 -6.848,10.819c-19.266,3.938 -38.511,8.012 -57.631,12.545c-7.533,1.787 -11.508,-0.713 -12.835,-7.345c-6.353,-31.731 -12.743,-63.477 -5.755,-95.956c1.014,-4.71 2.856,-8.594 8.659,-7.649c18.117,2.952 36.567,1.399 54.761,4.218c8.619,1.336 12.706,3.239 10.612,12.075c-0.745,3.136 -0.12,6.567 -0.12,9.864Z" style="fill:#5456a3;"/><path d="M456.404,278.92c-4.203,20.157 -8.47,40.87 -20.121,59.297c-4.277,6.765 -8.728,13.439 -13.333,20.006c-4.341,6.19 -9.419,6.658 -13.914,0.319c-14.069,-19.842 -27.841,-39.876 -41.879,-59.74c-2.991,-4.236 -2.61,-7.514 0.755,-11.48c8.971,-10.578 15.59,-22.219 18.914,-35.75c1.061,-5.802 5.407,-8.124 10.702,-5.076c19.641,8.067 35.484,14.522 52.92,22.416c4.182,1.894 6.314,4.972 5.956,10.008Z" style="fill:#a3cc38;"/><path d="M259.196,56.409c24.226,0.079 44.181,3.479 63.668,9.886c5.97,1.962 8.22,5.15 7.65,11.017c-1.756,18.024 -3.221,36.073 -4.891,54.103c-0.509,5.495 -3.177,8.655 -9.596,7.095c-12.619,-3.07 -25.288,-3.317 -38.049,-0.752c-7.491,1.505 -12.433,-1.38 -15.86,-7.933c-9.85,-18.832 -20.263,-37.401 -30.007,-56.283c-6.055,-11.734 -4.776,-13.776 8.987,-15.733c7.158,-1.017 14.456,-1.137 18.098,-1.4Z" style="fill:#d22432;"/><path d="M330.503,133.425c3.814,-14.43 8.245,-31.631 12.952,-48.764c1.555,-5.659 4.928,-5.347 10.24,-3.098c22.937,9.712 62.005,50.707 63.645,56.405c1.817,6.309 3.737,9.648 -1.687,13.538c-12.381,8.878 -24.853,17.638 -37.221,26.531c-3.173,2.281 -6.059,1.844 -8.058,-0.971c-9.491,-13.358 -23.616,-21.961 -36.109,-32.227c-2.882,-2.366 -4.324,-5.008 -3.762,-11.414Z" style="fill:#f38f31;"/><path d="M456.792,243.028c0.364,13.531 -1.072,15.105 -14.515,10.928c-14.609,-2.753 -27.711,-6.54 -41.871,-10.859c-7.926,-1.106 -11.22,-6.558 -11.5,-13.249c-0.519,-12.401 -4.041,-23.999 -8.813,-35.348c-2.99,-7.111 -1.117,-10.526 6.645,-14.438c10.76,-6.325 20.267,-11.651 32.76,-16.507c7.936,-2.063 13.599,-2.039 17.171,5.582c11.038,23.551 19.359,47.79 20.123,73.891Z" style="fill:#deac3e;"/><path d="M499.967,296.935c-3.803,25.756 -8.25,51.253 -19.057,75.53c-5.142,11.548 -11.507,22.437 -17.033,33.751c-1.938,3.967 -3.83,9.252 -9.603,9.39c-5.65,0.135 -8.21,-4.586 -10.297,-8.679c-2.91,-5.712 -6.577,-10.968 -11.049,-15.46c-5.446,-5.471 -5.072,-10.396 -0.503,-15.713c13.813,-16.07 21.816,-34.865 28.959,-54.215c3.619,-9.801 4.292,-19.962 6.276,-29.957c2.554,-12.856 3.609,-13.503 15.941,-8.38c3.168,1.316 6.466,2.346 9.63,3.669c4.549,1.905 7.092,5.13 6.736,10.064Z" style="fill:#a3cc38;"/><path d="M406.02,458.976c0.84,4.542 -2.535,6.604 -5.848,8.342c-19.876,10.424 -39.073,22.138 -61.482,27.592c-7.572,1.841 -10.782,-0.313 -12.481,-7.212c-3.42,-13.898 -1.446,-28.178 -3.811,-42.157c-0.832,-4.922 2.876,-8.069 8.004,-8.561c17.287,-1.662 31.764,-10.513 47.26,-16.66c12.61,-5.003 15.727,-4.354 18.822,8.55c2.467,10.29 8.601,19.444 9.536,30.106Z" style="fill:#309647;"/><path d="M450.546,123.845c-2.179,7.093 -9.026,9.612 -14.945,12.525c-5.347,2.633 -7.996,-1.997 -10.547,-5.543c-16.369,-22.775 -36.156,-42.158 -60.833,-56.975c-14.8,-8.89 -16.958,-17.346 -10.02,-32.804c2.481,-5.526 6.163,-5.815 10.581,-2.545c13.867,10.266 29.083,18.978 41.242,31.215c12.814,12.895 25.911,25.588 36.787,40.114c3.201,4.277 6.717,8.366 7.735,14.013Z" style="fill:#f38f31;"/><path d="M307.079,33.513c0.033,11.408 -2.289,13.031 -11.742,9.379c-13.507,-5.219 -27.992,-3.719 -41.995,-5.357c-7.533,-0.881 -12.201,-2.657 -13.995,-10.173c-1.6,-6.713 -4.346,-13.175 -6.534,-19.763c-1.87,-5.633 0.119,-8.237 6.496,-7.467c16.089,1.944 32.222,3.076 48.138,6.772c12.08,2.805 19.385,7.544 18.791,20.192c-0.122,2.586 0.669,5.211 0.841,6.417Z" style="fill:#d22432;"/><path d="M481.928,236.673c-8.321,0.234 -14.864,-3.019 -15.812,-13.644c-1.179,-13.191 -6.338,-25.514 -10.742,-37.93c-2.024,-5.704 -0.952,-8.117 5.463,-9.749c18.234,-4.642 18.519,-5.031 24.576,12.989c3.967,11.802 8.722,23.417 9.67,36.096c0.844,11.279 0.122,12.672 -13.155,12.238Z" style="fill:#deac3e;"/></g></svg>