<svg version="1.1" xmlns="http://www.w3.org/2000/svg" xmlns:xlink="http://www.w3.org/1999/xlink" style="display:none">
 <symbol id="fonticonpicker-logo" viewBox="0 0 500 500" fill-rule="evenodd" clip-rule="evenodd" stroke-linejoin="round" stroke-miterlimit="1.414" xmlns="http://www.w3.org/2000/svg">
 <path d="M261.567 443.641c-4.366 16.936-8.644 33.892-13.148 50.795-1.391 5.217-5.668 6.029-10.658 5.366-41.389-5.497-77.54-22.411-111.486-44.952-23.555-15.643-42.672-35.28-61.16-55.791-5.879-6.523-6.237-10.358 1.467-16.643 14.784-12.065 32.156-20.605 46.664-32.911 4.224-3.584 7.94-3.525 12.083 1.496 13.65 16.537 28.301 32.083 46.097 45.01 18.612 13.518 38.078 24.736 60.531 31.58 8.054 2.454 15.4 7.131 24.039 8.594 3.932.665 5.726 3.448 5.571 7.456zM294.497 311.359c-4.38 17.972-9.032 37.525-13.941 57.019-2.653 10.536-5.697 20.984-8.662 31.447-1.838 6.481-5.467 7.807-12.422 5.366-25.439-8.93-49.396-20.242-70.234-36.974-13.259-10.649-23.622-23.923-35.297-36.002-4.584-4.745-3.535-9.057 2.731-12.836 23.61-14.244 45.948-30.222 67.887-46.685 13.729-10.3 16.599-9.832 26.939 3.468 8.642 11.119 20.731 18.206 34.109 23.117 5.397 1.981 9.186 4.455 8.89 12.08z" fill="#3a53a0"/>
 <path d="M111.849 207.714c-.89-9.446 1.465-20.71 3.689-32.092 1.799-9.199 6.357-10.723 15.34-9.072 15.32 2.814 29.151 9.94 44.535 12.584 13.585 2.336 26.858 6.272 40.325 9.278 6.761 1.509 9.571 4.452 8.861 11.736-1.62 16.623.671 32.927 8.537 48.118 3.799 7.335 1.314 11.083-6.215 14.481-28.335 12.785-56.437 26.043-84.481 39.395-6.034 2.873-7.139-1.085-9.107-4.535-13.261-23.232-21.46-56.679-21.484-89.893z" fill="#5456a3"/>
 <path d="M261.864 139.432c-.095 3.454-2.417 4.425-4.236 5.927-10.961 9.04-22.106 17.945-27.073 31.672-2.504 6.917-6.446 8.616-14.25 5.463-25.076-10.127-49.629-21.408-75.341-30.179-15.524-5.294-15.348-8.399-8.039-22.177 14.821-27.937 39.256-45.944 66.642-61.218 5.297-2.955 10.348-3.495 14.423 2.254 15.257 21.53 30.622 42.988 45.904 64.499l1.97 3.759zM192.503 42.069c.323 4.306-1.899 6.031-5.13 7.146-19.477 6.716-35.955 17.822-51.758 30.437-14.668 11.709-24.963 26.308-34.157 41.735-6.266 10.516-7.069 11.572-19.196 6.792-14.021-5.524-27.092-13.09-41.722-17.365-6.87-2.007-7.731-6.004-4.281-12.164 6.92-12.355 16.045-23.33 25.925-33.218 16.143-16.156 33.428-31.123 55.22-41.147 13.687-6.294 26.546-13.971 41.656-17.043 4.658-.945 8.781-1.443 11.837 3.197 6.429 9.766 12.52 19.758 20.323 28.654.83.947 1.041 2.388 1.283 2.976z" fill="#db1078"/>
 <path d="M307.349 412.748c-14.008.087-15.978-2.042-14.757-15.663 2.206-24.574 4.356-49.153 6.558-73.728 1.301-14.494 2.444-15.699 17.411-15.428 12.121.219 23.351-1.587 32.992-9.293 6.309-5.042 10.496-3.724 14.264 3.65 11.166 21.866 22.81 43.523 34.776 65.003 4.173 7.492 3.849 12.93-4.048 17.47-26.898 15.462-54.888 27.79-87.196 27.989z" fill="#309647"/>
 <path d="M76.954 212.355c-.594 20.958 3.42 41.383 9.157 61.429 2.061 7.198-.015 9.422-6.848 10.819-19.266 3.938-38.511 8.012-57.631 12.545-7.533 1.787-11.508-.713-12.835-7.345-6.353-31.731-12.743-63.477-5.755-95.956 1.014-4.71 2.856-8.594 8.659-7.649 18.117 2.952 36.567 1.399 54.761 4.218 8.619 1.336 12.706 3.239 10.612 12.075-.745 3.136-.12 6.567-.12 9.864z" fill="#5456a3"/>
 <path d="M456.404 278.92c-4.203 20.157-8.47 40.87-20.121 59.297a503.46 503.46 0 0 1-13.333 20.006c-4.341 6.19-9.419 6.658-13.914.319-14.069-19.842-27.841-39.876-41.879-59.74-2.991-4.236-2.61-7.514.755-11.48 8.971-10.578 15.59-22.219 18.914-35.75 1.061-5.802 5.407-8.124 10.702-5.076 19.641 8.067 35.484 14.522 52.92 22.416 4.182 1.894 6.314 4.972 5.956 10.008z" fill="#a3cc38"/>
 <path d="M259.196 56.409c24.226.079 44.181 3.479 63.668 9.886 5.97 1.962 8.22 5.15 7.65 11.017-1.756 18.024-3.221 36.073-4.891 54.103-.509 5.495-3.177 8.655-9.596 7.095-12.619-3.07-25.288-3.317-38.049-.752-7.491 1.505-12.433-1.38-15.86-7.933-9.85-18.832-20.263-37.401-30.007-56.283-6.055-11.734-4.776-13.776 8.987-15.733 7.158-1.017 14.456-1.137 18.098-1.4z" fill="#d22432"/>
 <path d="M330.503 133.425c3.814-14.43 8.245-31.631 12.952-48.764 1.555-5.659 4.928-5.347 10.24-3.098 22.937 9.712 62.005 50.707 63.645 56.405 1.817 6.309 3.737 9.648-1.687 13.538-12.381 8.878-24.853 17.638-37.221 26.531-3.173 2.281-6.059 1.844-8.058-.971-9.491-13.358-23.616-21.961-36.109-32.227-2.882-2.366-4.324-5.008-3.762-11.414z" fill="#f38f31"/>
 <path d="M456.792 243.028c.364 13.531-1.072 15.105-14.515 10.928-14.609-2.753-27.711-6.54-41.871-10.859-7.926-1.106-11.22-6.558-11.5-13.249-.519-12.401-4.041-23.999-8.813-35.348-2.99-7.111-1.117-10.526 6.645-14.438 10.76-6.325 20.267-11.651 32.76-16.507 7.936-2.063 13.599-2.039 17.171 5.582 11.038 23.551 19.359 47.79 20.123 73.891z" fill="#deac3e"/>
 <path d="M499.967 296.935c-3.803 25.756-8.25 51.253-19.057 75.53-5.142 11.548-11.507 22.437-17.033 33.751-1.938 3.967-3.83 9.252-9.603 9.39-5.65.135-8.21-4.586-10.297-8.679-2.91-5.712-6.577-10.968-11.049-15.46-5.446-5.471-5.072-10.396-.503-15.713 13.813-16.07 21.816-34.865 28.959-54.215 3.619-9.801 4.292-19.962 6.276-29.957 2.554-12.856 3.609-13.503 15.941-8.38 3.168 1.316 6.466 2.346 9.63 3.669 4.549 1.905 7.092 5.13 6.736 10.064z" fill="#a3cc38"/>
 <path d="M406.02 458.976c.84 4.542-2.535 6.604-5.848 8.342-19.876 10.424-39.073 22.138-61.482 27.592-7.572 1.841-10.782-.313-12.481-7.212-3.42-13.898-1.446-28.178-3.811-42.157-.832-4.922 2.876-8.069 8.004-8.561 17.287-1.662 31.764-10.513 47.26-16.66 12.61-5.003 15.727-4.354 18.822 8.55 2.467 10.29 8.601 19.444 9.536 30.106z" fill="#309647"/>
 <path d="M450.546 123.845c-2.179 7.093-9.026 9.612-14.945 12.525-5.347 2.633-7.996-1.997-10.547-5.543-16.369-22.775-36.156-42.158-60.833-56.975-14.8-8.89-16.958-17.346-10.02-32.804 2.481-5.526 6.163-5.815 10.581-2.545 13.867 10.266 29.083 18.978 41.242 31.215 12.814 12.895 25.911 25.588 36.787 40.114 3.201 4.277 6.717 8.366 7.735 14.013z" fill="#f38f31"/>
 <path d="M307.079 33.513c.033 11.408-2.289 13.031-11.742 9.379-13.507-5.219-27.992-3.719-41.995-5.357-7.533-.881-12.201-2.657-13.995-10.173-1.6-6.713-4.346-13.175-6.534-19.763-1.87-5.633.119-8.237 6.496-7.467 16.089 1.944 32.222 3.076 48.138 6.772 12.08 2.805 19.385 7.544 18.791 20.192-.122 2.586.669 5.211.841 6.417z" fill="#d22432"/>
 <path d="M481.928 236.673c-8.321.234-14.864-3.019-15.812-13.644-1.179-13.191-6.338-25.514-10.742-37.93-2.024-5.704-.952-8.117 5.463-9.749 18.234-4.642 18.519-5.031 24.576 12.989 3.967 11.802 8.722 23.417 9.67 36.096.844 11.279.122 12.672-13.155 12.238z" fill="#deac3e"/>
 </symbol>
</svg>
